# xmcd
#
# Track frame offsets: 
#        150
#        18732
#        32391
#
# Disc length: 634 seconds
#
# Revision: 0
# Processed by: cddbd v1.5.2PL0 Copyright (c) Steve Scherf et al.
# Submitted via: ExactAudioCopyFreeDBPlugin 1.0
#
DISCID=19027803
DTITLE=Bumblebee - Russian Doll
DYEAR=2002
DGENRE=Other
TTITLE0=Russian Doll
TTITLE1=Small
TTITLE2=The Wizard
EXTD=
EXTT0=
EXTT1=
EXTT2=
PLAYORDER=
